<?xml version="1.0" encoding="iso-8859-1"?>
<!-- Generator: Adobe Illustrator 19.0.0, SVG Export Plug-In . SVG Version: 6.00 Build 0)  -->
<svg version="1.1" id="Capa_1" xmlns="http://www.w3.org/2000/svg" xmlns:xlink="http://www.w3.org/1999/xlink" x="0px" y="0px"
	 viewBox="0 0 512 512" style="enable-background:new 0 0 512 512;" xml:space="preserve">
<g>
	<path style="fill:#BABABA;" d="M112.264,401.06c0,6.827-5.535,12.363-12.363,12.363H54.929c-6.827,0-12.363-5.535-12.363-12.363
		v-10.712c0-6.827,5.535-12.363,12.363-12.363h44.973c6.827,0,12.363,5.535,12.363,12.363L112.264,401.06L112.264,401.06z"/>
	<path style="fill:#BABABA;" d="M469.434,401.06c0,6.827-5.535,12.363-12.363,12.363h-44.972c-6.827,0-12.363-5.535-12.363-12.363
		v-10.712c0-6.827,5.535-12.363,12.363-12.363h44.972c6.827,0,12.363,5.535,12.363,12.363V401.06z"/>
</g>
<g>
	<path style="fill:#A59F9F;" d="M99.901,396.735H54.929c-5.795,0-10.646-3.993-11.985-9.375c-0.238,0.959-0.379,1.956-0.379,2.988
		v10.712c0,6.827,5.535,12.363,12.363,12.363h44.973c6.827,0,12.363-5.535,12.363-12.363v-10.712c0-1.032-0.14-2.029-0.379-2.988
		C110.547,392.742,105.697,396.735,99.901,396.735z"/>
	<path style="fill:#A59F9F;" d="M457.071,396.735h-44.972c-5.795,0-10.646-3.993-11.984-9.375c-0.49,1.971-0.379,1.943-0.379,13.7
		c0,6.827,5.535,12.363,12.363,12.363h44.972c6.827,0,12.363-5.535,12.363-12.363c0-11.833,0.104-11.759-0.379-13.7
		C467.717,392.742,462.866,396.735,457.071,396.735z"/>
</g>
<path style="fill:#585A60;" d="M477.208,379.016H34.791C15.607,379.016,0,363.408,0,344.225V133.37
	c0-19.184,15.607-34.793,34.791-34.793h442.417c19.183,0,34.792,15.609,34.792,34.793v210.856
	C512,363.408,496.391,379.016,477.208,379.016z"/>
<path style="fill:#FFA92C;" d="M457.071,141.143H54.929c-6.828,0-12.363,5.534-12.363,12.363v170.581
	c0,6.827,5.535,12.363,12.363,12.363h402.142c6.827,0,12.363-5.535,12.363-12.363V153.506
	C469.434,146.678,463.898,141.143,457.071,141.143z"/>
<path style="fill:#414356;" d="M20.605,344.225V133.37c0-19.184,15.607-34.793,34.791-34.793H34.791
	C15.607,98.577,0,114.186,0,133.37v210.856c0,19.183,15.607,34.791,34.791,34.791h20.605
	C36.212,379.016,20.605,363.408,20.605,344.225z"/>
<path style="fill:#FF8828;" d="M63.17,324.087V153.506c0-6.828,5.535-12.363,12.363-12.363H54.929
	c-6.828,0-12.363,5.534-12.363,12.363v170.581c0,6.827,5.535,12.363,12.363,12.363h20.605
	C68.706,336.45,63.17,330.915,63.17,324.087z"/>
<g>
	<path style="fill:#F5F5F5;" d="M159.976,207.092c0,23.013-32.77,30.542-32.77,40.192v0.955h27.786c2.651,0,4.984,3.287,4.984,7.105
		c0,3.818-2.333,7.317-4.984,7.317h-37.754c-2.969,0-7.211-2.015-7.211-5.091v-10.287c0-16.65,33.406-26.193,33.406-39.662
		c0-3.393-2.121-7.528-8.059-7.528c-4.242,0-7.953,2.121-7.953,7.953c0,3.076-3.288,6.044-8.695,6.044
		c-4.242,0-7.424-1.908-7.424-8.59C111.299,178.39,159.976,178.073,159.976,207.092z"/>
	<path style="fill:#F5F5F5;" d="M199.641,237.316c0-7.106-4.348-8.484-10.181-8.484c-3.606,0-4.773-3.181-4.773-6.362
		c0-12.456,13.044,0.319,13.044-15.484c0-6.15-3.499-7.634-7.847-7.634c-14.795,0-1.183,11.454-15.589,11.454
		c-7.636,0-8.59-1.592-8.59-6.681c0-8.272,5.938-18.983,24.178-18.983c13.469,0,23.649,4.878,23.649,19.195
		c0,7.74-2.863,14.953-8.165,17.391c8.949,3.338,10.817,9.493,10.817,17.605c0,17.392-11.984,23.966-26.83,23.966
		c-18.241,0-25.24-11.135-25.24-20.042c0-4.773,2.015-6.044,7.848-6.044c6.787,0,8.483,1.484,8.483,5.513
		c0,4.985,4.666,6.151,9.439,6.151C199.224,248.875,199.641,244.272,199.641,237.316z"/>
	<path style="fill:#F5F5F5;" d="M260.303,226.075c0,4.348-3.711,8.165-8.059,8.165c-4.666,0-8.165-3.817-8.165-8.165
		c0-4.454,3.499-8.165,8.165-8.165C256.592,217.909,260.303,221.621,260.303,226.075z M260.303,255.132
		c0,4.348-3.711,8.165-8.059,8.165c-4.666,0-8.165-3.817-8.165-8.165c0-4.454,3.499-8.165,8.165-8.165
		C256.592,246.967,260.303,250.678,260.303,255.132z"/>
	<path style="fill:#F5F5F5;" d="M338.674,236.892v2.014c0,17.71-11.559,24.39-25.769,24.39c-17.075,0-26.194-9.757-26.194-19.724
		c0-5.726,3.076-7.317,8.272-7.317c7.211,0,8.272,2.758,8.272,6.15c0,4.243,4.029,6.469,9.225,6.469
		c6.044,0,9.651-3.076,9.651-9.969v-2.014c0-7-3.606-10.393-9.439-10.393c-19.552,0-23.322,2.055-22.271-9.545l2.863-26.725
		c0.319-3.181,1.167-5.09,2.97-5.09h33.829c6.364,0,6.363,14.423,0,14.423h-23.225l-1.06,14.21
		C314.642,213.772,338.674,211.692,338.674,236.892z"/>
	<path style="fill:#F5F5F5;" d="M344.083,210.167c0-18.241,11.348-25.027,25.982-25.027c14.635,0,26.088,6.787,26.088,25.027v28.104
		c0,18.24-11.772,25.026-27.043,25.026c-17.922,0-25.027-11.135-25.027-19.937c0-5.09,2.44-6.681,7.741-6.681
		c4.56,0,8.59,1.167,8.59,6.044c0,4.03,4.241,6.151,9.226,6.151c6.257,0,9.969-3.287,9.969-10.605v-9.545
		c-3.392,3.711-8.165,4.666-13.256,4.666C350.776,233.392,344.083,225.094,344.083,210.167z M379.61,209.001
		c0-7.318-3.605-10.5-9.544-10.5c-7.242,0-9.438,4.43-9.438,11.454c0,7.741,3.499,10.711,9.544,10.711
		c5.726,0,9.439-2.756,9.439-9.757V209.001z"/>
</g>
<path style="fill:#F2D422;" d="M42.565,325.117c0,6.827,5.535,12.363,12.363,12.363H457.07c6.827,0,12.363-5.535,12.363-12.363
	v-29.142H42.565V325.117z"/>
<path style="fill:#E8C018;" d="M63.17,325.117v-29.142H42.565v29.142c0,6.827,5.535,12.363,12.363,12.363h20.605
	C68.706,337.48,63.17,331.945,63.17,325.117z"/>
<g>
</g>
<g>
</g>
<g>
</g>
<g>
</g>
<g>
</g>
<g>
</g>
<g>
</g>
<g>
</g>
<g>
</g>
<g>
</g>
<g>
</g>
<g>
</g>
<g>
</g>
<g>
</g>
<g>
</g>
</svg>
